<?xml version="1.0" encoding="UTF-8"?>
<svg id="Layer_2" data-name="Layer 2" xmlns="http://www.w3.org/2000/svg" viewBox="0 0 50.86 37.76">
  <defs>
    <style>
      .cls-1 {
        fill: #ed1c2b;
      }
    </style>
  </defs>
  <g id="Layer_1-2">
    <polygon class="cls-1" points="26.5 0 26.5 37.76 37.61 37.76 37.61 8.39 26.5 0"/>
    <polygon class="cls-1" points="22.08 3.34 22.08 37.76 24.36 37.76 24.36 1.62 22.08 3.34"/>
    <polygon class="cls-1" points="17.67 37.76 19.94 37.76 19.94 4.96 17.67 6.68 17.67 37.76"/>
    <polygon class="cls-1" points="13.25 37.76 15.52 37.76 15.52 8.3 13.25 10.02 13.25 37.76"/>
    <polygon class="cls-1" points="39.75 16.93 39.75 37.76 50.86 37.76 50.86 25.32 39.75 16.93"/>
    <polygon class="cls-1" points="8.83 20.22 8.83 37.76 11.1 37.76 11.1 18.51 8.83 20.22"/>
    <polygon class="cls-1" points="4.42 37.76 6.69 37.76 6.69 21.85 4.42 23.56 4.42 37.76"/>
    <polygon class="cls-1" points="0 37.76 2.27 37.76 2.27 25.18 0 26.9 0 37.76"/>
  </g>
</svg>