<?xml version="1.0" encoding="UTF-8"?>
<svg id="Layer_2" data-name="Layer 2" xmlns="http://www.w3.org/2000/svg" xmlns:xlink="http://www.w3.org/1999/xlink" viewBox="100 300 200 50">
  <defs>
    <style>
      .cls-1 {
        fill: #fff;
      }

      .cls-2 {
        fill: #ed1c2b;
      }

      .cls-3 {
        fill: none;
      }

      .cls-4 {
        clip-path: url(#clippath-1);
      }

      .cls-5 {
        clip-path: url(#clippath-2);
      }

      .cls-6 {
        clip-path: url(#clippath);
      }

      .cls-7 {
        fill: #1d1740;
      }
    </style>
    <clipPath id="clippath">
      <rect class="cls-3" width="841.89" height="595.28"/>
    </clipPath>
    <clipPath id="clippath-1">
      <rect class="cls-3" width="841.89" height="595.28"/>
    </clipPath>
    <clipPath id="clippath-2">
      <rect class="cls-3" width="841.89" height="595.28"/>
    </clipPath>
  </defs>
  <g id="Layer_1-2">
    <rect class="cls-7" x="231.47" y="134.47" width="183.47" height="70.06"/>
    <polygon class="cls-2" points="285.11 158.17 285.11 180.83 291.77 180.83 291.77 163.21 285.11 158.17"/>
    <polygon class="cls-2" points="282.46 160.18 282.46 180.83 283.82 180.83 283.82 159.15 282.46 160.18"/>
    <polygon class="cls-2" points="279.81 180.83 281.17 180.83 281.17 161.15 279.81 162.18 279.81 180.83"/>
    <polygon class="cls-2" points="277.16 180.83 278.52 180.83 278.52 163.15 277.16 164.18 277.16 180.83"/>
    <polygon class="cls-2" points="293.06 168.33 293.06 180.83 299.72 180.83 299.72 173.37 293.06 168.33"/>
    <polygon class="cls-2" points="274.51 170.31 274.51 180.83 275.87 180.83 275.87 169.28 274.51 170.31"/>
    <polygon class="cls-2" points="271.86 180.83 273.22 180.83 273.22 171.28 271.86 172.31 271.86 180.83"/>
    <polygon class="cls-2" points="269.21 180.83 270.57 180.83 270.57 173.28 269.21 174.31 269.21 180.83"/>
    <g class="cls-6">
      <path class="cls-1" d="M316.93,170.79c-2.01,0-3.23-1.12-3.23-3.32v-4.27h1.64v4.22c0,1.22.61,1.85,1.61,1.85s1.61-.61,1.61-1.79v-4.27h1.64v4.21c0,2.26-1.27,3.37-3.27,3.37"/>
      <path class="cls-1" d="M325.15,170.78c-1.13,0-2.27-.39-3.17-1.19l.97-1.16c.67.56,1.38.91,2.23.91.67,0,1.08-.27,1.08-.7v-.02c0-.42-.26-.63-1.5-.95-1.5-.38-2.47-.83-2.47-2.31v-.02c0-1.35,1.09-2.25,2.61-2.25,1.09,0,2.01.34,2.77.95l-.85,1.24c-.66-.46-1.31-.74-1.94-.74s-.96.29-.96.65v.02c0,.49.32.68,1.61,1.01,1.51.39,2.37.94,2.37,2.24v.02c0,1.48-1.13,2.31-2.74,2.31"/>
    </g>
    <polygon class="cls-1" points="334.79 170.67 334.79 167.67 331.76 167.67 331.76 170.67 330.12 170.67 330.12 163.21 331.76 163.21 331.76 166.16 334.79 166.16 334.79 163.21 336.43 163.21 336.43 170.67 334.79 170.67"/>
    <polygon class="cls-1" points="363.27 170.67 359.76 166 359.76 170.67 358.14 170.67 358.14 163.21 359.65 163.21 363.15 167.95 363.15 163.21 364.77 163.21 364.77 170.67 363.27 170.67"/>
    <polygon class="cls-1" points="331.16 180.83 328.85 177.65 327.98 178.55 327.98 180.83 326.34 180.83 326.34 173.37 327.98 173.37 327.98 176.63 331.01 173.37 332.99 173.37 329.96 176.53 333.13 180.83 331.16 180.83"/>
    <polygon class="cls-1" points="334.98 180.83 334.98 173.37 340.56 173.37 340.56 174.83 336.61 174.83 336.61 176.34 340.08 176.34 340.08 177.8 336.61 177.8 336.61 179.37 340.61 179.37 340.61 180.83 334.98 180.83"/>
    <rect class="cls-1" x="350.85" y="173.37" width="1.64" height="7.46"/>
    <polygon class="cls-1" points="354.91 180.82 354.91 173.36 360.49 173.36 360.49 174.82 356.54 174.82 356.54 176.33 360.01 176.33 360.01 177.79 356.54 177.79 356.54 179.36 360.54 179.36 360.54 180.82 354.91 180.82"/>
    <polygon class="cls-1" points="362.99 180.83 362.99 173.37 364.64 173.37 364.64 179.34 368.36 179.34 368.36 180.83 362.99 180.83"/>
    <g class="cls-4">
      <path class="cls-1" d="M375.49,177.1c0-1.32-.91-2.25-2.25-2.25h-1.27v4.5h1.27c1.34,0,2.25-.91,2.25-2.23v-.02ZM373.24,180.83h-2.91v-7.46h2.91c2.35,0,3.97,1.61,3.97,3.71v.02c0,2.1-1.62,3.73-3.97,3.73"/>
      <path class="cls-1" d="M308.83,169.27c-1.37.02-2.28-1.03-2.3-2.31v-.02c-.02-1.28.88-2.34,2.2-2.36.74-.01,1.4.31,1.84.83l1.04-1.24c-.71-.69-1.72-1.12-2.88-1.1-2.3.04-3.95,1.81-3.91,3.93v.02c.04,2.12,1.72,3.81,4.02,3.77,1.21-.02,2.23-.57,2.93-1.36l-1.11-1.08c-.41.55-1.06.91-1.83.93"/>
    </g>
    <polygon class="cls-1" points="344.78 163.21 346.54 163.21 346.54 170.67 344.97 170.67 344.97 165.79 342.86 168.99 342.81 168.99 340.69 165.79 340.69 170.67 339.13 170.67 339.13 163.21 340.89 163.21 342.83 166.34 344.78 163.21"/>
    <path class="cls-1" d="M351.32,167.55l.99-2.42.99,2.42h-1.98ZM351.56,163.21l-3.18,7.46h1.67l.68-1.67h3.16l.68,1.67h1.72l-3.18-7.46h-1.56Z"/>
    <path class="cls-1" d="M319.53,177.71l.99-2.42.99,2.42h-1.98ZM319.76,173.37l-3.18,7.46h1.67l.68-1.67h3.16l.68,1.67h1.72l-3.18-7.46h-1.56Z"/>
    <polygon class="cls-1" points="344.56 174.86 344.56 176.45 348.07 176.45 348.07 177.94 344.56 177.94 344.56 180.83 342.92 180.83 342.92 173.37 348.61 173.37 348.61 174.86 344.56 174.86"/>
    <polygon class="cls-1" points="314.83 173.37 313.1 178.57 311.37 173.37 309.78 173.37 308.05 178.57 306.32 173.37 304.57 173.37 307.26 180.83 308.89 180.83 310.58 175.71 312.26 180.83 313.89 180.83 316.58 173.37 314.83 173.37"/>
    <g class="cls-5">
      <path class="cls-1" d="M372.48,165.66c-.2-.18-.43-.44-.48-.69-.04-.27.12-.57.48-.6.38-.02.58.25.58.55,0,.34-.35.62-.59.74M373.4,168.76c-.35.45-.78.7-1.16.7-.54,0-1.01-.45-1.03-.98-.01-.33.24-.83.99-1.17l1.2,1.45ZM375.25,168.83l.86-.96-1.04-1.11-.76.9-.93-1.1c.62-.36,1-1.03.98-1.71-.04-1.01-.87-1.77-1.93-1.77-.51,0-.98.2-1.32.55-.34.35-.52.82-.5,1.33.02.56.4,1.04.67,1.36-.88.37-1.53,1.29-1.5,2.19.04,1.28,1.15,2.31,2.46,2.31.73,0,1.55-.4,2.04-.95l.67.82h1.92l-1.63-1.85Z"/>
    </g>
  </g>
</svg>