<svg version="1.1" id="layer" xmlns="http://www.w3.org/2000/svg" x="0" y="0" viewBox="0 0 600 126" style="enable-background:new 0 0 600 126" xml:space="preserve"><style>.st0{fill:#eb0029}.st1{fill:#717271}</style><path class="st0" d="M88.4 0v126h37V28zM73.6 11.1V126h7.6V5.4zM58.9 22.3V126h7.6V16.5zM44.2 33.4V126h7.6V27.7zM132.5 126h37.1V84.5l-37.1-28.1zM29.5 67.5V126H37V61.7zM14.7 78.6V126h7.6V72.9zM0 89.8V126h7.6V84z"/><path class="st1" d="M265.2 70.2c-11.1 0-17.9-6.2-17.9-18.4V28h9.1v23.5c0 6.8 3.4 10.2 8.9 10.2 5.6 0 8.9-3.4 8.9-10V27.9h9.1v23.4c.1 12.7-7 18.9-18.1 18.9M310.8 70.1c-6.3 0-12.6-2.2-17.6-6.6l5.4-6.5c3.7 3.1 7.6 5 12.4 5 3.7 0 6-1.5 6-3.9V58c0-2.3-1.4-3.5-8.4-5.3-8.4-2.1-13.7-4.6-13.7-12.8v-.1c0-7.5 6-12.5 14.5-12.5 6 0 11.2 1.9 15.4 5.3l-4.7 6.9c-3.7-2.5-7.3-4.1-10.8-4.1S304 37 304 39c0 2.7 1.8 3.8 8.9 5.6 8.4 2.2 13.2 5.2 13.2 12.4v.1c-.1 8.4-6.3 13-15.3 13M364.4 69.5V52.8h-16.9v16.7h-9.1V28h9.1v16.4h16.9V28h9.1v41.5zM522.6 69.5l-19.5-26v26h-9V28h8.4l19.4 26.3V28h9v41.5zM344.2 126l-12.8-17.7-4.8 5V126h-9.2V84.5h9.2v18.1l16.8-18.1h11l-16.9 17.6 17.7 23.9zM365.4 126V84.5h31v8.1h-21.9v8.4h19.2v8.1h-19.2v8.8h22.2v8.1zM453.6 84.5h9.1V126h-9.1zM476.1 125.9V84.4h31v8.2h-21.9v8.4h19.3v8.1h-19.3v8.7h22.2v8.1zM521.1 126V84.5h9.1v33.2h20.7v8.3zM578 126h-16.2V84.5H578c13 0 22 8.9 22 20.6v.1c0 11.7-9 20.8-22 20.8m12.5-20.8c0-7.3-5-12.5-12.5-12.5h-7.1v25h7.1c7.5 0 12.5-5 12.5-12.4v-.1zM220.1 61.7c-7.6.1-12.7-5.7-12.8-12.8v-.1c-.1-7.1 4.9-13 12.2-13.1 4.1-.1 7.8 1.7 10.2 4.6l5.8-6.9c-4-3.9-9.6-6.2-16-6.1-12.8.2-21.9 10-21.7 21.8v.1c.2 11.8 9.6 21.2 22.3 20.9 6.7-.1 12.4-3.2 16.3-7.6l-6.1-6c-2.3 3.1-5.9 5.1-10.2 5.2M419.9 28h9.7v41.5h-8.7V42.3l-11.7 17.8h-.3l-11.8-17.8v27.2h-8.6V28h9.7L409 45.4zM457.5 28l-17.6 41.4h9.3l3.8-9.3h17.5l3.8 9.3h9.5l-17.6-41.5h-8.7v.1zm-1.3 24.1 5.5-13.4 5.5 13.4h-11zM280.9 84.5 263.3 126h9.3l3.8-9.3h17.5l3.8 9.3h9.5l-17.6-41.5h-8.7zm-1.3 24.1 5.5-13.4 5.5 13.4h-11zM418.7 92.8v8.8h19.5v8.3h-19.5V126h-9.2V84.5h31.6v8.3zM253.5 84.5l-9.6 28.9-9.7-28.9h-8.8l-9.6 28.9-9.6-28.9h-9.7l14.9 41.5h9.1l9.3-28.5 9.4 28.5h9.1l14.9-41.5zM589.1 59.2l4.8-5.3-5.8-6.2-4.2 5-5.2-6.1c3.4-2 5.6-5.7 5.4-9.5-.2-5.6-4.8-9.8-10.7-9.8-2.8 0-5.4 1.1-7.3 3.1-1.9 2-2.9 4.6-2.8 7.4.1 3.1 2.2 5.8 3.7 7.6-4.9 2-8.5 7.2-8.3 12.2.2 7.1 6.4 12.9 13.7 12.9 4.1 0 8.6-2.2 11.4-5.3l3.7 4.5h10.7l-9.1-10.5zm-10.2-.4c-1.9 2.5-4.3 3.9-6.4 3.9-3 0-5.6-2.5-5.7-5.5-.1-1.8 1.3-4.6 5.5-6.5l6.6 8.1zm-5.1-17.2c-1.1-1-2.4-2.4-2.6-3.9-.2-1.5.7-3.2 2.7-3.3 2.1-.1 3.2 1.4 3.2 3.1-.1 1.9-2 3.4-3.3 4.1"/></svg>
